<?xml version="1.0" encoding="UTF-8"?>
<svg width="222px" height="44px" viewBox="0 0 222 44" version="1.1" xmlns="http://www.w3.org/2000/svg" xmlns:xlink="http://www.w3.org/1999/xlink">
    <!-- Generator: Sketch 55.1 (78136) - https://sketchapp.com -->
    <title>Word</title>
    <desc>Created with Sketch.</desc>
    <g id="Mock-Ups" stroke="none" stroke-width="1" fill="none" fill-rule="evenodd">
        <g id="Landing-Page" transform="translate(-844.000000, -92.000000)" fill="#FFFFFE">
            <g id="Nav" transform="translate(79.000000, 69.000000)">
                <g id="SS_horizontal_White" transform="translate(690.056800, 7.581451)">
                    <g id="Word" transform="translate(75.763457, 15.873295)">
                        <polygon id="Fill-4" points="185.919519 32.6223075 189.654475 32.6223075 189.654475 10.4028614 185.919519 10.4028614"></polygon>
                        <polygon id="Fill-5" points="185.919519 7.50833845 189.654475 7.50833845 189.654475 3.77163698 185.919519 3.77163698"></polygon>
                        <path d="M13.5449191,3.55922912 C9.48591301,3.55922912 5.15360612,5.15554873 5.15360612,9.03385545 C5.15360612,12.5013206 9.12089113,13.5051341 13.8177543,14.2807023 C20.2028437,15.2845158 26.496212,16.5622236 26.496212,23.7710483 C26.4505843,30.934224 19.6096831,33.2609285 13.4988258,33.2609285 C7.84378014,33.2609285 2.46296652,31.2076525 5.68434189e-14,25.8695076 L3.28333457,23.9531787 C5.33611706,27.7401873 9.62233063,29.5652181 13.5449191,29.5652181 C17.4209486,29.5652181 22.5740892,28.3336251 22.5740892,23.6341011 C22.6197169,19.6644963 18.1505268,18.5237357 13.3619426,17.7942824 C7.20545744,16.8356521 1.23148326,15.4214629 1.23148326,8.94255733 C1.14022779,2.28152129 7.93503561,2.4158453e-13 13.453198,2.4158453e-13 C18.1961545,2.4158453e-13 22.7109724,0.958164414 25.5380296,5.79463554 L22.5284614,7.66531532 C20.7955387,4.88212019 17.1015545,3.60441237 13.5449191,3.55922912" id="Fill-6"></path>
                        <path d="M33.2393394,0.745756552 L33.2393394,13.8400491 C35.1547731,10.8742578 38.1643413,9.87044431 41.0374918,9.82479525 C47.3764879,9.82479525 50.4773115,14.0221796 50.4773115,20.2271908 L50.4773115,32.6372133 L46.7837929,32.6372133 L46.7837929,20.2728399 C46.7837929,15.8472103 44.5033374,13.3379095 40.3987036,13.3379095 C36.2945353,13.3379095 33.2845016,16.5775952 33.2845016,20.6836814 L33.2845016,32.6372133 L29.5453553,32.6372133 L29.5453553,0.699641687 L33.2393394,0.699641687 L33.2393394,0.745756552" id="Fill-7"></path>
                        <path d="M65.3538155,13.2768888 C60.8846254,13.2768888 57.2818967,16.4709255 57.2818967,21.489527 C57.2818967,26.5085944 60.8846254,29.7478143 65.3538155,29.7478143 C76.2071638,29.7478143 76.2071638,13.2317056 65.3994433,13.2317056 L65.3538155,13.2768888 Z M73.5626176,32.7131398 L73.4708965,28.6070536 C71.6928116,31.7097922 68.2721282,33.1696304 65.170839,33.1696304 C58.6954253,33.1696304 53.6335403,28.6983518 53.6335403,21.3525799 C53.6335403,14.052457 58.7866808,9.67294226 65.2169323,9.71812551 C68.5915224,9.71812551 71.9204847,11.2697277 73.5626176,14.18987 L73.6077797,10.083318 L77.2561362,10.083318 L77.2561362,32.6223075 L73.653873,32.6223075 L73.5626176,32.7131398 L73.5626176,32.7131398 Z" id="Fill-8"></path>
                        <path d="M100.585876,21.489527 C100.585876,16.4252764 97.2564486,13.413836 92.6508409,13.413836 C87.9535121,13.413836 84.7609674,16.881767 84.7609674,21.489527 C84.7609674,26.0977529 88.0903953,29.5652181 92.6508409,29.6108671 C97.1656587,29.6108671 100.585876,26.5542434 100.585876,21.489527 Z M80.7024269,10.1746161 L84.2595279,10.1746161 L84.4420388,14.5089476 C86.2205893,11.497973 89.5495516,9.76377457 93.1066526,9.76377457 C99.5825319,9.90072174 104.325488,14.4632985 104.325488,21.3982289 C104.325488,28.5157555 99.6281596,33.1239814 92.878514,33.1239814 C89.6864349,33.1239814 86.1293339,31.7554412 84.3507834,28.5614046 L84.3507834,43.2529484 L80.7024269,43.2529484 L80.7024269,10.1746161 L80.7024269,10.1746161 Z" id="Fill-9"></path>
                        <path d="M126.146254,19.7101454 C125.963743,15.3301648 122.954175,12.9578112 118.530147,12.9578112 C114.60849,12.9578112 111.187807,15.3301648 110.54995,19.6644963 L126.146254,19.6644963 L126.146254,19.7101454 Z M128.335454,29.0178952 C126.054999,31.7097922 122.133342,33.0326833 118.621403,33.0326833 C111.64455,33.0326833 106.76471,28.4244574 106.76471,21.2612817 C106.76471,14.4632985 111.64455,9.58164414 118.439357,9.58164414 C125.325421,9.58164414 130.569817,13.8246775 129.703355,22.8128839 L110.54995,22.8128839 C110.960134,26.9646192 114.380351,29.5652181 118.712658,29.5652181 C121.26688,29.5652181 124.367704,28.5614046 125.872488,26.7363739 L128.380617,29.0178952 L128.335454,29.0178952 L128.335454,29.0178952 Z" id="Fill-10"></path>
                        <path d="M145.33132,3.55922912 C141.272314,3.55922912 136.940473,5.15554873 136.940473,9.03385545 C136.940473,12.5013206 140.907758,13.5051341 145.604621,14.2807023 C151.98971,15.2845158 158.283079,16.5622236 158.283079,23.7710483 C158.236985,30.934224 151.39655,33.2609285 145.285692,33.2609285 C139.630647,33.2609285 134.249368,31.2076525 131.786867,25.8695076 L135.070201,23.9531787 C137.122518,27.7401873 141.409197,29.5652181 145.33132,29.5652181 C149.20735,29.5652181 154.36049,28.3336251 154.36049,23.6341011 C154.406118,19.6644963 149.937393,18.5237357 145.148809,17.7942824 C138.991859,16.8356521 133.017884,15.4214629 133.017884,8.94255733 C132.927094,2.28152129 139.721902,2.4158453e-13 145.239599,2.4158453e-13 C149.982556,2.4158453e-13 154.497839,0.958164414 157.324896,5.79463554 L154.315328,7.66531532 C152.58194,4.88212019 148.888421,3.60441237 145.33132,3.55922912" id="Fill-11"></path>
                        <path d="M164.946125,0.73038493 L164.946125,13.8246775 C166.861559,10.8588862 169.871127,9.85507269 172.744277,9.80988943 C179.082808,9.80988943 182.184097,14.0072738 182.184097,20.2118192 L182.184097,32.6223075 L178.490578,32.6223075 L178.490578,20.2579341 C178.490578,15.8323045 176.210123,13.3225379 172.105955,13.3225379 C168.001321,13.3225379 164.991753,16.5622236 164.991753,20.6683098 L164.991753,32.6223075 L161.252141,32.6223075 L161.252141,0.684735872 L164.946125,0.684735872 L164.946125,0.73038493" id="Fill-12"></path>
                        <path d="M201.219709,8.57783067 C201.219709,5.2016636 202.77012,3.69571048 205.187459,3.69571048 C205.235415,3.69571048 205.280577,3.70036855 205.328533,3.70176597 L206.169852,0.486302211 C205.815539,0.440653153 205.458432,0.410841523 205.095738,0.410841523 C200.353247,0.410841523 197.525724,3.42228194 197.525724,8.57783067 L197.525724,10.3572123 L193.102628,10.3572123 L193.102628,13.6420813 L197.525724,13.6420813 L197.525724,32.6223075 L201.219709,32.6223075 L201.219709,13.6420813 L205.69402,13.6420813 L205.69402,10.3572123 L201.219709,10.3572123 L201.219709,8.57783067" id="Fill-14"></path>
                        <path d="M220.279065,29.4911548 C219.983416,29.5377355 219.692423,29.5652181 219.412604,29.5652181 C216.721499,29.5652181 215.855503,27.8771345 215.855503,25.2308866 L215.855503,13.6136671 L220.654796,13.6136671 L220.654796,10.3721181 L215.901131,10.3721181 L215.901131,3.51311425 L212.161053,3.92395577 L212.161053,10.3721181 L207.646701,10.3721181 L207.646701,13.6136671 L212.161053,13.6136671 L212.161053,25.2308866 C212.161053,30.2038391 214.441974,33.0326833 219.276186,32.9418509 C219.872141,32.9236845 220.446678,32.8528819 221.01749,32.734567 L220.279065,29.4911548" id="Fill-15"></path>
                    </g>
                </g>
            </g>
        </g>
    </g>
</svg>