<?xml version="1.0" encoding="UTF-8"?>
<svg width="26px" height="17px" viewBox="0 0 26 17" version="1.1" xmlns="http://www.w3.org/2000/svg" xmlns:xlink="http://www.w3.org/1999/xlink">
    <!-- Generator: Sketch 55.1 (78136) - https://sketchapp.com -->
    <title>Shape</title>
    <desc>Created with Sketch.</desc>
    <g id="Mock-Ups" stroke="none" stroke-width="1" fill="none" fill-rule="evenodd">
        <g id="Landing-Page" transform="translate(-747.000000, -8056.000000)" fill="#386FF9">
            <g id="Section-7-Subscribe" transform="translate(-35.000000, 7961.000000)">
                <g id="Discord" transform="translate(253.000000, 4.000000)">
                    <path d="M542.410156,132.958059 C560.981421,132.958059 576.036406,117.903075 576.036406,99.3318095 C576.036406,80.7605444 560.981421,65.7055595 542.410156,65.7055595 C523.838891,65.7055595 508.783906,80.7605444 508.783906,99.3318095 C508.783906,117.903075 523.838891,132.958059 542.410156,132.958059 Z M550.661083,102.398171 C550.629227,102.163071 550.524177,101.93621 550.345933,101.755449 C549.911957,101.315252 549.208136,101.315252 548.77416,101.755449 L543.629018,106.973273 L543.629018,88.0487443 C543.629018,87.8993233 543.600334,87.7566888 543.548248,87.6261936 C543.474196,87.0765911 543.00932,86.6530595 542.447143,86.6530595 C541.8333,86.6530595 541.335752,87.1577258 541.335752,87.7801505 L541.335752,107.044752 L536.120127,101.755629 C535.685973,101.315523 534.982329,101.315523 534.548353,101.755629 C534.22309,102.08542 534.14151,102.568659 534.303615,102.975422 C534.335469,103.210542 534.440543,103.437425 534.618837,103.6182 L541.73174,110.831403 C541.948595,111.051411 542.2332,111.161505 542.517627,111.161505 C542.802054,111.161505 543.086392,111.051411 543.303514,110.831403 L550.416417,103.61802 C550.741629,103.288214 550.823184,102.804946 550.661083,102.398171 Z M542.410156,132.958059 C523.838891,132.958059 508.783906,117.903075 508.783906,99.3318095 C508.783906,80.7605444 523.838891,65.7055595 542.410156,65.7055595 C560.981421,65.7055595 576.036406,80.7605444 576.036406,99.3318095 C576.036406,117.903075 560.981421,132.958059 542.410156,132.958059 Z" id="Oval-117" transform="translate(542.410156, 99.331809) rotate(-90.000000) translate(-542.410156, -99.331809) "></path>
                </g>
            </g>
        </g>
    </g>
</svg>