<?xml version="1.0" encoding="UTF-8"?>
<svg width="160px" height="114px" viewBox="0 0 160 114" version="1.1" xmlns="http://www.w3.org/2000/svg" xmlns:xlink="http://www.w3.org/1999/xlink">
    <!-- Generator: Sketch 55.1 (78136) - https://sketchapp.com -->
    <title>Artboard</title>
    <desc>Created with Sketch.</desc>
    <g id="Artboard" stroke="none" stroke-width="1" fill="none" fill-rule="evenodd">
        <g id="logo" transform="translate(0.000000, 36.000000)" fill="#0D182D">
            <path d="M110.124787,16.9170925 C110.124787,18.7219352 110.662154,20.0027543 111.736821,21.0673826 C112.811489,22.0238517 114.205281,22.556102 116.035557,22.556102 C117.966715,22.556102 119.469628,22.0238517 120.435174,21.0673826 C121.509907,20.1109135 121.938087,18.7302257 121.938087,16.9170925 C121.938087,15.0041543 121.400721,13.5153711 120.325989,12.558902 C119.251321,11.6024329 117.857529,11.0701188 115.926436,11.0701188 C114.104464,11.0701188 112.593247,11.6024329 111.6277,12.6669974 C110.552968,13.615176 110.124787,15.1039592 110.124787,16.9170925 L110.124787,16.9170925 Z M108.294382,36.4956918 C108.294382,39.5813537 110.65372,41.1782323 115.380765,41.1782323 C121.392352,41.1782323 124.406546,39.2652941 124.406546,35.4310635 C124.406546,34.0504395 123.978302,33.0939704 123.012755,32.4535609 C122.047208,31.8131513 120.54436,31.4970918 118.394895,31.4970918 L114.633461,31.4970918 C110.443782,31.5968967 108.294382,33.1937754 108.294382,36.4956918 L108.294382,36.4956918 Z M126.984127,9.8973951 L126.984127,11.3861783 L122.257082,11.7022378 C123.541688,13.2991165 124.188175,15.0041543 124.188175,16.808997 C124.188175,19.0462852 123.432566,20.7429688 121.929653,22.1319471 C120.426741,23.5125711 118.495648,24.1529806 116.018819,24.1529806 C114.944087,24.1529806 114.196847,24.1529806 113.869419,24.0448852 C113.012994,24.4690402 112.366506,25.0013543 111.938326,25.5336684 C111.510145,26.1741418 111.291838,26.7063921 111.291838,27.4466066 C111.291838,28.1868211 111.610897,28.7191352 112.148264,29.043549 C112.685565,29.3595448 113.651112,29.5758631 114.944087,29.5758631 L118.915459,29.5758631 C121.383983,29.5758631 123.315076,30.1081135 124.608051,31.0645826 C125.901026,32.0210517 126.648265,33.5098349 126.648265,35.5308685 C126.648265,37.9761207 125.682719,39.7893178 123.751625,41.0617826 C121.820532,42.3343112 119.024645,42.9747208 115.372332,42.9747208 C112.475692,42.9747208 110.21717,42.4424066 108.605136,41.2697467 C106.993038,40.2051184 106.245798,38.6082398 106.245798,36.6953016 C106.245798,35.098423 106.783164,33.8258944 107.748711,32.7613299 C108.714258,31.6966379 110.107985,31.0562283 111.720019,30.6320734 C111.073531,30.3160138 110.435413,29.8835684 110.107985,29.3595448 C109.688173,28.8438754 109.461497,28.2118201 109.461497,27.5547658 C109.461497,26.0659188 110.427044,24.6852948 112.358137,23.5125711 C111.073531,22.9803207 109.998863,22.1319471 109.24319,20.9592234 C108.487517,19.7864997 108.168458,18.4058757 108.168458,16.9170925 C108.168458,14.6797405 108.924195,12.7668023 110.317923,11.3861783 C111.820835,10.0055543 113.751928,9.36514473 116.228693,9.36514473 C117.731605,9.36514473 118.915523,9.47324015 119.771948,9.78929968 L126.967324,9.78929968 L126.967324,9.8973951 L126.984127,9.8973951 Z M95.0873554,11.2780829 C92.6188961,11.2780829 90.6878029,12.1263928 89.394828,13.9395898 C88.1102223,15.6445638 87.4636705,18.1979116 87.4636705,21.5996329 C87.4636705,28.0870799 90.0413155,31.2808372 95.0873554,31.2808372 C97.664936,31.2808372 99.5960292,30.5323322 100.779947,29.043549 C101.963736,27.5547658 102.601919,25.1094497 102.601919,21.5913424 L102.601919,21.2752829 C102.601919,17.7654661 101.955367,15.2121184 100.779947,13.7232714 C99.7052149,12.0182974 97.7740573,11.2780829 95.0873554,11.2780829 L95.0873554,11.2780829 Z M95.0873554,9.46494965 C96.6993894,9.46494965 98.2023022,9.78100917 99.3861557,10.3132595 C100.570009,10.9536691 101.644677,11.9101382 102.610224,13.3989214 L102.71941,13.3989214 C102.610224,11.5941424 102.610224,9.88910459 102.610224,8.18406677 L102.610224,0 L104.650503,0 L104.650503,32.6614612 L103.256711,32.6614612 L102.71941,29.1516444 C100.99819,31.7049921 98.4206092,33.0856799 95.1964767,33.0856799 C91.9724086,33.0856799 89.613135,32.1292109 87.8919153,30.1081135 C86.1706956,28.1951753 85.423456,25.3174138 85.423456,21.5996329 C85.423456,17.6656612 86.2798169,14.6797405 87.8919153,12.558902 C89.5039493,10.4297092 91.9724086,9.46494965 95.0873554,9.46494965 L95.0873554,9.46494965 Z M75.1046355,11.2780829 C72.846114,11.2780829 71.1332635,12.0265879 69.7311673,13.4072757 C68.4465616,14.8960589 67.5817671,16.9170925 67.3718937,19.6866948 L81.5529004,19.6866948 C81.5529004,17.0251879 81.0155343,15.0041543 79.8316807,13.5153711 C78.7569484,12.0182974 77.1449144,11.2780829 75.1046355,11.2780829 L75.1046355,11.2780829 Z M75.751123,33.0856799 C72.4178692,33.0856799 69.8402886,32.0210517 67.9091954,30.0000181 C66.0872879,27.9789207 65.1133078,25.1094497 65.1133078,21.3834421 C65.1133078,17.7654661 65.9696687,14.7878997 67.8000741,12.6587069 C69.6219816,10.4214187 71.9896888,9.35679046 75.1046355,9.35679046 C77.7914018,9.35679046 79.940802,10.3132595 81.5529004,12.1263928 C83.1649345,14.0393309 83.9121741,16.5927424 83.9121741,19.7864997 L83.9121741,21.4915375 L67.262708,21.4915375 C67.262708,24.5771994 68.0183811,27.0224517 69.5212295,28.6193941 C70.9150209,30.3243681 73.064421,31.0645826 75.751123,31.0645826 C77.0357287,31.0645826 78.2196467,30.9564872 79.1851933,30.7485231 C80.1507398,30.5323322 81.4437147,30.2162727 82.9466275,29.5758631 L82.9466275,31.5968967 C81.6620218,32.1292109 80.4781682,32.5533658 79.4034359,32.7696204 C78.2027795,32.9858112 76.9769513,33.0939704 75.751123,33.0856799 L75.751123,33.0856799 Z M48.2539683,32.6614612 L48.2539683,2.02103358 L50.4033041,2.02103358 L50.4033041,30.6404276 L65.121677,30.6404276 L65.121677,32.6614612 L48.2539683,32.6614612 Z" id="Fill-1"></path>
            <path d="M0,26.3056034 L0,28.8411275 C0,31.6905049 2.34615971,34.1269841 5.34360009,34.1269841 L7.90691738,34.1269841 L7.90691738,26.3056034 L0,26.3056034 Z M12.5993008,34.1269841 L20.5062182,34.1269841 L20.5062182,26.3056034 L12.5993008,26.3056034 L12.5993008,34.1269841 Z M25.2069243,34.1186882 L27.7701776,34.1186882 C30.6507165,34.1186882 33.1138417,31.7979091 33.1138417,28.8328316 L33.1138417,26.3056034 L25.2069243,26.3056034 L25.2069243,34.1186882 Z M0,21.655686 L7.90691738,21.655686 L7.90691738,13.8343054 L0,13.8343054 L0,21.655686 Z M7.90691738,1.26396238 L5.34360009,1.26396238 C2.46306116,1.26396238 0,3.58480476 0,6.54981896 L0,9.08534306 L7.90691738,9.08534306 L7.90691738,1.26396238 Z M27.8786923,1.26396238 L12.5993008,1.26396238 L12.5993008,21.5483452 L33.1054773,21.5483452 L33.1054773,6.54158632 C33.1138417,3.69214562 30.7592953,1.26396238 27.8786923,1.26396238 L27.8786923,1.26396238 Z M156.902368,9.60564542 C157.862611,9.60564542 158.931306,9.71304961 160,9.91956203 L159.5742,11.9264878 C158.588924,11.7117428 157.587067,11.6043386 156.585082,11.6126345 C154.664723,11.6126345 153.061649,12.4550861 151.775797,14.0408178 C150.498332,15.7338903 149.855438,17.7408794 149.855438,20.2764035 L149.855438,32.6402974 L147.717985,32.6402974 L147.717985,10.0351355 L149.529829,10.0351355 L149.746923,14.1564546 L149.855438,14.1564546 C150.815617,12.4633188 151.775797,11.3070772 152.844555,10.671138 C154.130407,9.92779466 155.407873,9.60564542 156.902368,9.60564542 L156.902368,9.60564542 Z M136.396213,11.4061854 C134.150182,11.4061854 132.446916,12.1494655 131.052549,13.5205154 C129.775084,14.9989062 128.915096,17.005832 128.70639,19.7561011 L142.808572,19.7561011 C142.808572,17.1131728 142.274193,15.1062471 141.096919,13.6278563 C140.028161,12.1412329 138.425087,11.4061854 136.396213,11.4061854 L136.396213,11.4061854 Z M136.930529,33.0615548 C133.615803,33.0615548 131.052549,32.0043582 129.13219,29.9974324 C127.320345,27.9904433 126.351843,25.1410026 126.351843,21.4410043 C126.351843,17.8482836 127.203444,14.891502 129.023675,12.777172 C130.835456,10.5554379 133.190002,9.49830456 136.287699,9.49830456 C138.959467,9.49830456 141.096919,10.448097 142.700057,12.2485737 C144.303131,14.1481586 145.046217,16.6837461 145.046217,19.8552094 L145.046217,21.5483452 L128.597811,21.5483452 C128.597811,24.6124676 129.349284,27.0405875 130.843778,28.6263825 C132.229822,30.3195183 134.367275,31.0545657 137.039107,31.0545657 C138.316573,31.0545657 139.493846,30.9472249 140.454025,30.7407125 C141.414205,30.5260307 142.700057,30.2121775 144.194552,29.5762383 L144.194552,31.5831641 C142.917087,32.1117624 141.739877,32.5329565 140.671119,32.7477016 C139.493846,32.9623833 138.316573,33.0615548 136.930529,33.0615548 L136.930529,33.0615548 Z" id="Fill-3"></path>
        </g>
    </g>
</svg>