<?xml version="1.0" encoding="UTF-8"?>
<svg width="160px" height="114px" viewBox="0 0 160 114" version="1.1" xmlns="http://www.w3.org/2000/svg" xmlns:xlink="http://www.w3.org/1999/xlink">
    <!-- Generator: Sketch 55.1 (78136) - https://sketchapp.com -->
    <title>Artboard</title>
    <desc>Created with Sketch.</desc>
    <g id="Artboard" stroke="none" stroke-width="1" fill="none" fill-rule="evenodd">
        <g id="Group-15" transform="translate(9.000000, 0.000000)" fill="#0D182D">
            <path d="M36.8927789,35.882731 C37.2662558,33.1516554 38.3836985,30.9667948 40.2510827,29.3300932 C42.1144831,27.6914478 44.5634952,26.8721251 47.5931393,26.8721251 C50.6257712,26.8721251 53.0030758,27.6914478 54.7290367,29.3300932 C56.4520099,30.9667948 57.3632934,33.1516554 57.4549197,35.882731 L36.8927789,35.882731 Z M63.3319512,38.6808687 C63.3319512,36.0421248 62.9584743,33.6862075 62.2125166,31.6170046 C61.4665589,29.5468298 60.4038928,27.7934987 59.0314899,26.3599269 C57.6531114,24.9273271 56.0098133,23.8348968 54.0986078,23.0845799 C52.1864064,22.3332911 50.0889605,21.9571608 47.8042782,21.9571608 C45.3791686,21.9571608 43.1402995,22.3673081 41.0896626,23.1866308 C39.036038,24.0049816 37.2662558,25.1547547 35.7733444,26.6320626 C34.2824248,28.1122861 33.1171771,29.8879713 32.2766052,31.9571742 C31.4380252,34.027349 31.0197312,36.2919064 31.0197312,38.7489027 C31.0197312,41.0688591 31.4021715,43.2537197 32.1730277,45.3015405 C32.940896,47.3493613 34.037424,49.1231026 35.4586279,50.6247083 C36.8808277,52.126314 38.616748,53.3198232 40.6703727,54.2091237 C42.7220054,55.0964803 45.0305902,55.5387007 47.5931393,55.5387007 C50.6705884,55.5387007 53.3745607,55.0498285 55.7090399,54.0720839 C58.0375435,53.0943394 60.1847864,51.3759971 62.1428009,48.9190009 L58.0156329,45.7797217 C56.7099579,47.3707434 55.2419449,48.5768875 53.6096022,49.3971821 C51.9772594,50.2155329 49.9734317,50.6247083 47.5931393,50.6247083 C46.1022198,50.6247083 44.7268291,50.3525726 43.4669672,49.8063575 C42.2090972,49.2601424 41.1125692,48.5214884 40.181367,47.5884519 C39.2471769,46.6554154 38.4902639,45.5629851 37.9086359,44.3111611 C37.3240202,43.0612809 36.9863971,41.752114 36.8927789,40.3875481 L63.3319512,40.3875481 L63.3319512,38.6808687 Z" id="Fill-1"></path>
            <path d="M74.3749541,35.882731 C74.748431,33.1516554 75.8658737,30.9667948 77.7332578,29.3300932 C79.5966583,27.6914478 82.0456704,26.8721251 85.0753145,26.8721251 C88.1079464,26.8721251 90.485251,27.6914478 92.2112119,29.3300932 C93.9341851,30.9667948 94.8454685,33.1516554 94.9370949,35.882731 L74.3749541,35.882731 Z M100.814126,38.6808687 C100.814126,36.0421248 100.44065,33.6862075 99.6946918,31.6170046 C98.948734,29.5468298 97.886068,27.7934987 96.5136651,26.3599269 C95.1352866,24.9273271 93.4919885,23.8348968 91.5817789,23.0845799 C89.6685816,22.3332911 87.5711357,21.9571608 85.2864534,21.9571608 C82.8613438,21.9571608 80.6224746,22.3673081 78.5718378,23.1866308 C76.5182132,24.0049816 74.748431,25.1547547 73.2555195,26.6320626 C71.7646,28.1122861 70.5993523,29.8879713 69.7587804,31.9571742 C68.9202004,34.027349 68.5019064,36.2919064 68.5019064,38.7489027 C68.5019064,41.0688591 68.8843467,43.2537197 69.6552028,45.3015405 C70.4230712,47.3493613 71.5195992,49.1231026 72.9408031,50.6247083 C74.3630029,52.126314 76.0989232,53.3198232 78.1525478,54.2091237 C80.2041806,55.0964803 82.5127654,55.5387007 85.0753145,55.5387007 C88.1537596,55.5387007 90.8567359,55.0498285 93.1912151,54.0720839 C95.5197187,53.0943394 97.6669615,51.3759971 99.6249761,48.9190009 L95.4978081,45.7797217 C94.1921331,47.3707434 92.7241201,48.5768875 91.0917773,49.3971821 C89.4594346,50.2155329 87.4556069,50.6247083 85.0753145,50.6247083 C83.5843949,50.6247083 82.2090043,50.3525726 80.9501383,49.8063575 C79.6912724,49.2601424 78.5947444,48.5214884 77.6635422,47.5884519 C76.7293521,46.6554154 75.972439,45.5629851 75.3908111,44.3111611 C74.8061954,43.0612809 74.4685723,41.752114 74.3749541,40.3875481 L100.814126,40.3875481 L100.814126,38.6808687 Z" id="Fill-3"></path>
            <path d="M113.016039,34.8182979 C113.555869,33.3594763 114.345005,32.0902917 115.382443,31.0028424 C116.415859,29.9163808 117.65033,29.0610392 119.086859,28.43583 C120.521378,27.8116084 122.13383,27.4994976 123.923209,27.4994976 C125.711582,27.4994976 127.323029,27.8116084 128.758553,28.43583 C130.195082,29.0610392 131.429553,29.9163808 132.465985,31.0028424 C133.500407,32.0902917 134.288538,33.3594763 134.830378,34.8182979 C135.371213,36.2751442 135.643641,37.8594027 135.643641,39.5700859 C135.643641,41.2797813 135.371213,42.8640398 134.830378,44.3198984 C134.288538,45.7767446 133.500407,47.0488923 132.465985,48.1363416 C131.429553,49.2218155 130.195082,50.0781448 128.758553,50.700391 C127.323029,51.3256002 125.711582,51.637711 123.923209,51.637711 C122.13383,51.637711 120.521378,51.3256002 119.086859,50.700391 C117.65033,50.0781448 116.415859,49.2218155 115.382443,48.1363416 C114.345005,47.0488923 113.555869,45.7767446 113.016039,44.3198984 C112.474199,42.8640398 112.203782,41.2797813 112.203782,39.5700859 C112.203782,37.8594027 112.474199,36.2751442 113.016039,34.8182979 L113.016039,34.8182979 Z M106.696918,23.3393374 L106.696918,71.6147765 L112.203782,71.6147765 L112.203782,50.0425879 L112.34653,50.0425879 C113.379947,51.8935233 115.015519,53.4530896 117.252243,54.7252373 C119.486956,55.9954097 122.087587,56.6314835 125.053131,56.6314835 C127.359218,56.6314835 129.524568,56.2038128 131.54918,55.3484712 C133.570776,54.4941173 135.32497,53.3029603 136.807742,51.7769756 C138.289509,50.2509909 139.454616,48.446477 140.303063,46.3654092 C141.148494,44.2863168 141.571712,42.0215383 141.571712,39.5700859 C141.571712,37.1176457 141.148494,34.8518795 140.303063,32.7717994 C139.454616,30.6897439 138.278451,28.8872054 136.772558,27.3612207 C135.265659,25.835236 133.442101,24.644079 131.300878,23.7887374 C129.15865,22.9343836 126.793252,22.5047374 124.206694,22.5047374 C121.804101,22.5047374 119.604573,22.990682 117.604087,23.9615836 C115.603602,24.9344606 113.851418,26.2984637 112.34653,28.053593 L112.203782,28.053593 L112.203782,23.3393374 L106.696918,23.3393374 Z" id="Fill-5"></path>
            <path d="M47.5936244,68.2022793 C50.6261628,68.2022793 53.0033941,69.0225739 54.7293019,70.6612193 C56.4522219,72.2979209 57.3634773,74.4827815 57.4551008,77.2138572 L36.8935938,77.2138572 C37.2670592,74.4827815 38.3844674,72.2979209 40.251794,70.6612193 C42.115137,69.0225739 44.5640737,68.2022793 47.5936244,68.2022793 Z M35.459487,91.9558344 C36.8816429,93.4574401 38.6175098,94.6519212 40.6710711,95.5402498 C42.7216447,96.4276064 45.0311543,96.8698268 47.5936244,96.8698268 C50.6709787,96.8698268 53.3748676,96.3809546 55.7092749,95.40321 C58.0377067,94.4254655 60.1848834,92.7080951 62.1418417,90.250127 L58.0157967,87.1098759 C56.710162,88.7018695 55.2421943,89.9080136 53.6099018,90.7273363 C51.9766135,91.5456871 49.9738434,91.9558344 47.5936244,91.9558344 C46.1027508,91.9558344 44.7274025,91.6836988 43.4675795,91.1365117 C42.2097483,90.5912685 41.1132541,89.8526146 40.1820805,88.9186061 C39.2479192,87.9855696 38.4910295,86.8931393 37.9084236,85.6422872 C37.3248218,84.392407 36.9872091,83.0832401 36.8935938,81.7186742 L63.3319512,81.7186742 L63.3319512,80.0110229 C63.3319512,77.372279 62.9584858,75.0173337 62.2125511,72.9481308 C61.4666164,70.8779559 60.403983,69.1246248 59.0306265,67.691053 C57.6532864,66.2584532 56.010039,65.1660229 54.0988924,64.415706 C52.1867499,63.6644172 50.0893687,63.2882869 47.8047568,63.2882869 C45.3797219,63.2882869 43.1409218,63.6974623 41.0903482,64.5177569 C39.0367868,65.3361077 37.2670592,66.4858808 35.7741938,67.9641606 C34.2833202,69.4424404 33.1181084,71.2181255 32.2775624,73.2883003 C31.4390083,75.3584751 31.0197312,77.6230326 31.0197312,80.0790569 C31.0197312,82.3999852 31.4031556,84.5848458 32.173988,86.6326666 C32.9418327,88.6804874 34.0383269,90.4542287 35.459487,91.9558344 Z" id="Fill-8"></path>
            <path d="M0,0 L5.45520695,0 L5.45520695,37.3499846 L20.3546849,23.06542 L28.1176725,23.06542 L12.3098234,37.8347929 L29.7272424,55.516965 L21.6843729,55.516965 L5.45520695,38.4578357 L5.45520695,44.4483281 L5.45520695,55.516965 L5.45520695,78.7028465 L20.3546849,64.4182818 L28.1176725,64.4182818 L12.3098234,79.1886421 L29.7272424,96.8698268 L21.6843729,96.8698268 L5.45520695,79.8106975 L5.45520695,96.8698268 L0,96.8698268 L0,55.516965 L0,44.4483281 L0,0 Z M78.9346099,97.3239836 L65.4699937,64.8551292 L71.7857023,64.8551292 L81.8503125,90.1542731 L81.9886849,90.1542731 L91.6362014,64.8551292 L97.5367929,64.8551292 L81.8503125,104.491731 C81.2958348,105.87188 80.7265315,107.122457 80.1493212,108.250332 C79.5711226,109.37428 78.8753074,110.34117 78.0658293,111.145112 C77.2563512,111.949054 76.2847797,112.568453 75.1521034,113.006253 C74.0174503,113.442089 72.641634,113.660989 71.0226777,113.660989 C70.2349438,113.660989 69.4145935,113.615835 68.5576735,113.524545 C67.7007534,113.43031 66.9021474,113.200612 66.1628438,112.83447 L66.8566822,108.145299 C67.4131366,108.375978 67.9913353,108.525184 68.5932549,108.593897 C69.1941862,108.664573 69.8870362,108.697948 70.6747701,108.697948 C72.4330871,108.697948 73.7278567,108.214994 74.5620442,107.250067 C75.394255,106.28514 76.1118143,104.998244 76.7147223,103.39036 L78.9346099,97.3239836 Z" id="Fill-13"></path>
        </g>
    </g>
</svg>