<?xml version="1.0" encoding="UTF-8"?>
<svg width="160px" height="114px" viewBox="0 0 160 114" version="1.1" xmlns="http://www.w3.org/2000/svg" xmlns:xlink="http://www.w3.org/1999/xlink">
    <!-- Generator: Sketch 55.1 (78136) - https://sketchapp.com -->
    <title>Artboard</title>
    <desc>Created with Sketch.</desc>
    <defs>
        <polygon id="path-1" points="5.37909213e-06 0.0313063205 26.7448514 0.0313063205 26.7448514 37.7241162 5.37909213e-06 37.7241162"></polygon>
    </defs>
    <g id="Artboard" stroke="none" stroke-width="1" fill="none" fill-rule="evenodd">
        <g id="logo" transform="translate(12.000000, 38.000000)">
            <g id="Group-3">
                <mask id="mask-2" fill="white">
                    <use xlink:href="#path-1"></use>
                </mask>
                <g id="Clip-2"></g>
                <path d="M13.3724284,16.9262735 C17.7563885,16.9262735 21.4356875,17.2549899 21.4356875,17.8445922 L21.4356875,29.2609638 C21.4356875,29.4383662 21.4141711,29.4592371 21.2527984,29.5218498 C21.0968047,29.5896801 13.7758603,32.1515807 13.7758603,32.1515807 C13.7758603,32.1515807 13.4800102,32.2402819 13.3939448,32.2402819 C13.3025002,32.2402819 13.0120292,32.1307098 13.0120292,32.1307098 C13.0120292,32.1307098 5.69108485,29.5688092 5.53509118,29.5009789 C5.37909751,29.4331485 5.35220204,29.4122776 5.35220204,29.2400929 L5.35220204,17.8237213 C5.30916931,17.234119 8.98846832,16.9262735 13.3724284,16.9262735 M13.3939448,4.50288199 C16.5353346,4.50288199 18.4341541,6.34473718 18.4341541,9.3918857 L18.4341541,12.4390342 C14.9108488,12.1990191 11.9039363,12.1990191 8.35911454,12.4390342 L8.35911454,9.3918857 C8.35911454,6.33951946 10.2579341,4.50288199 13.3939448,4.50288199 M13.3939448,0.031295885 C8.06326448,0.031295885 3.74923259,4.21590739 3.74923259,9.38666798 L3.74923259,12.8929759 C1.87730853,13.2216922 5.37909213e-06,13.6599807 5.37909213e-06,14.2287122 L5.37909213e-06,32.5272565 C5.37909213e-06,32.5272565 5.37909213e-06,33.0333754 0.586326421,33.2733905 C2.71106781,34.1082257 11.070177,36.9779718 12.9905129,37.6354045 C13.2379511,37.7241579 13.3078793,37.7241579 13.3724284,37.7241579 C13.463873,37.7241579 13.5069057,37.7241579 13.7543439,37.6354045 C15.6746798,36.9779718 24.0553054,34.1082257 26.1800468,33.2733905 C26.7233351,33.0542984 26.7448514,32.5481274 26.7448514,32.5481274 L26.7448514,14.2287122 C26.7448514,13.6599807 24.8944437,13.2008214 23.0171406,12.8929759 L23.0171406,9.38666798 C23.044036,4.21590739 18.7031087,0.031295885 13.3939448,0.031295885" id="Fill-1" fill="#0D182D" mask="url(#mask-2)"></path>
            </g>
            <polygon id="Fill-4" fill="#0D182D" points="38.626229 29.5675505 38.626229 16.809795 34 16.809795 34 12.2348485 48.4242424 12.2348485 48.4242424 16.809795 43.8434059 16.809795 43.8434059 29.5675505"></polygon>
            <path d="M60.6205725,18.1735521 C60.6205725,17.2321321 59.7890458,16.825023 58.9169348,16.825023 L55.7225544,16.825023 L55.7225544,19.5628135 L58.9169348,19.5628135 C59.7890458,19.5424207 60.6205725,19.1353648 60.6205725,18.1735521 L60.6205725,18.1735521 Z M60.0019939,29.5675505 L57.6188746,24.117314 L55.7225544,24.117314 L55.7225544,29.5675505 L50.4848485,29.5675505 L50.4848485,12.2348485 L59.7028374,12.2348485 C63.7490102,12.2348485 65.9191283,14.9268485 65.9191283,18.1735521 C65.9191283,21.1658524 64.1951719,22.7484454 62.8109563,23.4303505 L65.9393939,29.562439 L60.0019939,29.562439 L60.0019939,29.5675505 Z" id="Fill-6" fill="#0D182D"></path>
            <polygon id="Fill-8" fill="#0D182D" points="69.030303 29.5675505 69.030303 12.2348485 82.4242424 12.2348485 82.4242424 16.8097558 74.3661225 16.8097558 74.3661225 18.5196089 82.2271882 18.5196089 82.2271882 23.0945162 74.3661225 23.0945162 74.3661225 24.9977547 82.4242424 24.9977547 82.4242424 29.5675505"></polygon>
            <polygon id="Fill-10" fill="#0D182D" points="84.4848485 29.5624405 84.4848485 25.3959256 90.933428 16.808407 84.4848485 16.808407 84.4848485 12.2348485 97.6899937 12.2348485 97.6899937 16.3606963 91.2216095 24.993992 97.8787879 24.993992 97.8787879 29.5675505"></polygon>
            <path d="M113.264269,20.9110544 C113.264269,18.5747906 111.658309,16.7155779 109.192275,16.7155779 C106.726137,16.7155779 105.120177,18.5747906 105.120177,20.9110544 C105.120177,23.2472668 106.726137,25.1064795 109.192275,25.1064795 C111.678233,25.1064795 113.264269,23.2472668 113.264269,20.9110544 M99.9393939,20.9110544 C99.9393939,15.7663131 103.971643,12.2348485 109.212095,12.2348485 C114.432675,12.2348485 118.484848,15.7466547 118.484848,20.9110544 C118.484848,26.0557443 114.452599,29.5675505 109.212095,29.5675505 C103.971643,29.5675505 99.9393939,26.0557443 99.9393939,20.9110544" id="Fill-12" fill="#0D182D"></path>
            <path d="M130.701444,18.1532126 C130.701444,17.2117926 129.869917,16.8046835 128.997806,16.8046835 L125.803479,16.8046835 L125.803479,19.542474 L128.997806,19.542474 C129.874957,19.5220813 130.701444,19.1150253 130.701444,18.1532126 L130.701444,18.1532126 Z M130.062547,29.5675505 L127.679481,24.1173672 L125.78316,24.1173672 L125.78316,29.5675505 L120.545455,29.5675505 L120.545455,12.2348485 L129.76339,12.2348485 C133.809616,12.2348485 135.979681,14.9269018 135.979681,18.1735521 C135.979681,21.1658524 134.255778,22.7484454 132.871562,23.4304038 L136,29.562439 L130.062547,29.562439 L130.062547,29.5675505 Z" id="Fill-14" fill="#0D182D"></path>
        </g>
    </g>
</svg>