<?xml version="1.0" encoding="UTF-8"?>
<svg width="62px" height="62px" viewBox="0 0 62 62" version="1.1" xmlns="http://www.w3.org/2000/svg" xmlns:xlink="http://www.w3.org/1999/xlink">
    <!-- Generator: Sketch 55.1 (78136) - https://sketchapp.com -->
    <title>Oval 117</title>
    <desc>Created with Sketch.</desc>
    <g id="Mock-Ups" stroke="none" stroke-width="1" fill="none" fill-rule="evenodd">
        <g id="Landing-Page" transform="translate(-929.000000, -1421.000000)" fill="#FFFFFF">
            <g id="Section-1" transform="translate(929.000000, 1421.000000)">
                <path d="M31,61.2714844 C14.1553151,61.2714844 0.5,47.6161692 0.5,30.7714844 C0.5,13.9267995 14.1553151,0.271484375 31,0.271484375 C47.8446849,0.271484375 61.5,13.9267995 61.5,30.7714844 C61.5,47.6161692 47.8446849,61.2714844 31,61.2714844 Z M38.1979839,32.9697966 C37.8043548,32.5705253 37.1659677,32.5705253 36.7723387,32.9697966 L32.0416129,37.7673505 L32.0416129,20.2937892 C32.0416129,19.7292316 31.5901613,19.2714844 31.0335484,19.2714844 C30.4767742,19.2714844 30.0254839,19.7292316 30.0254839,20.2937892 L30.0254839,37.7673505 L25.2947581,32.9699602 C24.9009677,32.5707706 24.2627419,32.5707706 23.8691129,32.9699602 C23.4753226,33.3692316 23.4753226,34.0164732 23.8691129,34.4157446 L30.3207258,40.958332 C30.5174194,41.1578859 30.7755645,41.2577446 31.0335484,41.2577446 C31.2915323,41.2577446 31.5494355,41.1578859 31.746371,40.958332 L38.1979839,34.415581 C38.5916935,34.0163097 38.5916935,33.369068 38.1979839,32.9697966 Z" id="Oval-117"></path>
            </g>
        </g>
    </g>
</svg>